<svg height="512" viewBox="0 0 60 60" width="512" xmlns="http://www.w3.org/2000/svg"><g id="Page-1" fill="none" fill-rule="evenodd"><g id="025---Artboard-Edit" fill-rule="nonzero"><path id="Shape" d="m40 8h16c1.6568542 0 3 1.34314575 3 3v31c0 1.6568542-1.3431458 3-3 3h-52c-1.65685425 0-3-1.3431458-3-3v-31c0-1.65685425 1.34314575-3 3-3h16" fill="#ff9801"/><path id="Shape" d="m56 8h-3c1.6568542 0 3 1.34314575 3 3v31c0 1.6568542-1.3431458 3-3 3h3c1.6568542 0 3-1.3431458 3-3v-31c0-1.65685425-1.3431458-3-3-3z" fill="#f57c00"/><path id="Shape" d="m55 13v16c-4 5-13 2-13 2 2 6-5 10-5 10h-31c-.55228475 0-1-.4477153-1-1v-27c0-.5522847.44771525-1 1-1h14c.0032948 1.1032019.8967981 1.9967052 2 2h16c1.1032019-.0032948 1.9967052-.8967981 2-2h14c.5522847 0 1 .4477153 1 1z" fill="#f5f5f5"/><path id="Shape" d="m39 31c2 6-5 10-5 10h3s6.432-3.694 5.174-9.3c-1.0751618-.1472685-2.1366313-.381367-3.174-.7z" fill="#cfd8dc"/><path id="Shape" d="m54 12h-3c.5522847 0 1 .4477153 1 1v16c-1.4618109 1.6892838-3.5507812 2.7073948-5.782 2.818 2.892.256 6.587-.075 8.782-2.818v-16c0-.5522847-.4477153-1-1-1z" fill="#cfd8dc"/><path id="Shape" d="m34 3v2h-8v-2c.0032948-1.10320187.8967981-1.9967052 2-2h4c1.1032019.0032948 1.9967052.89679813 2 2z" fill="#ffdc00"/><path id="Shape" d="m32 1h-3c1.1032019.0032948 1.9967052.89679813 2 2v2h3v-2c-.0032948-1.10320187-.8967981-1.9967052-2-2z" fill="#fec108"/><rect id="Rectangle-path" fill="#ffdc00" height="9" rx="2" width="20" x="20" y="5"/><path id="Shape" d="m38 5h-3c1.1032019.0032948 1.9967052.89679813 2 2v5c-.0032948 1.1032019-.8967981 1.9967052-2 2h3c1.1032019-.0032948 1.9967052-.8967981 2-2v-5c-.0032948-1.10320187-.8967981-1.9967052-2-2z" fill="#fec108"/><path id="Shape" d="m8 45h44v4c0 1.1045695-.8954305 2-2 2h-40c-1.1045695 0-2-.8954305-2-2z" fill="#a0522d"/><path id="Shape" d="m49 45v4c0 1.1045695-.8954305 2-2 2h3c1.1045695 0 2-.8954305 2-2v-4z" fill="#783e22"/><path id="Shape" d="m20 51h7l-2.513 6.7c-.2920345.7816093-1.0386157 1.2997916-1.873 1.3h-2.728c-.6554465-.0001637-1.2692159-.3214787-1.6428106-.8600297-.3735948-.5385509-.4595957-1.2259809-.2301894-1.8399703z" fill="#f57c00"/><path id="Shape" d="m40 51h-7l2.513 6.7c.2920345.7816093 1.0386157 1.2997916 1.873 1.3h2.728c.6554465-.0001637 1.2692159-.3214787 1.6428106-.8600297.3735948-.5385509.4595957-1.2259809.2301894-1.8399703z" fill="#f57c00"/><path id="Shape" d="m55 29s0 12-18 12c0 0 7-4 5-10 0 0 9 3 13-2z" fill="#9e9e9e"/><path id="Shape" d="m53 24.121c0 2.7614237-2.2385763 5-5 5s-5-2.2385763-5-5c0-1.639 1.852-4.9 3.3-7.2.3725272-.5775094 1.0127638-.9264012 1.7-.9264012s1.3274728.3488918 1.7.9264012c1.448 2.303 3.3 5.561 3.3 7.2z" fill="#607d8b"/><path id="Shape" d="m49.7 16.925c-.3425168-.528708-.9126902-.866693-1.5409152-.9134172-.6282251-.0467243-1.2421239.2031954-1.6590848.6754172.0729579.0738263.1398415.1534178.2.238 1.449 2.3 3.3 5.557 3.3 7.2-.0219308 2.1451747-1.4422448 4.0244531-3.5 4.631.4848583.1564123.990565.2386739 1.5.244 2.7277599.0327866 4.9659664-2.1512554 5-4.879 0-1.639-1.852-4.897-3.3-7.196z" fill="#37474f"/><path id="Shape" d="m51.87 33h-7.74c.0284703-.4792033.1021306-.9546473.22-1.42l.08-.31c.3391706-1.3315225 1.5359676-2.2651064 2.91-2.27h1.32c1.3740324.0048936 2.5708294.9384775 2.91 2.27l.08.31c.1178694.4653527.1915297.9407967.22 1.42z" fill="#ffdc00"/><path id="Shape" d="m51.65 31.58-.08-.31c-.3391706-1.3315225-1.5359676-2.2651064-2.91-2.27h-1.32c-.2847824.0028623-.567675.0466433-.84.13 1.018651.2991295 1.8049009 1.1119676 2.07 2.14l.08.31c.1178694.4653527.1915297.9407967.22 1.42h3c-.0284703-.4792033-.1021306-.9546473-.22-1.42z" fill="#fec108"/><path id="Shape" d="m51.89 34.46-1.74 22.55c-.0349297.5404804-.2788031 1.0461591-.68 1.41-.6053669.5656555-1.4814179.7341716-2.2534365.4334682s-1.3032869-1.0173742-1.3665635-1.8434682l-1.74-22.55c-.0384187-.4862405-.0317235-.9749943.02-1.46h7.74c.0517235.4850057.0584187.9737595.02 1.46z" fill="#91562d"/><path id="Shape" d="m51.87 33h-3c.0517235.4850057.0584187.9737595.02 1.46l-1.74 22.55c-.0351856.5253532-.2677391 1.0179666-.651 1.379.8229666.8025144 2.1314673.8161675 2.971.031.4011969-.3638409.6450703-.8695196.68-1.41l1.74-22.55c.0384187-.4862405.0317235-.9749943-.02-1.46z" fill="#6d4122"/><path id="Shape" d="m25.34 36h-12.34l2.69-5 4.31-8 3.43 6.36v.01c-.2870685.6732532-.4334006 1.3981075-.43 2.13-.0042486 1.7927542.8699401 3.4738863 2.34 4.5z" fill="#e91e63"/><path id="Shape" d="m23 31.5c-.0034006-.7318925.1429315-1.4567468.43-2.13v-.01l-3.43-6.36-1.5 2.783 1.93 3.577v.01c-.2870685.6732532-.4334006 1.3981075-.43 2.13-.0042486 1.7927542.8699401 3.4738863 2.34 4.5h3c-1.4700599-1.0261137-2.3442486-2.7072458-2.34-4.5z" fill="#ad1457"/><path id="Shape" d="m34 31.5c0 3.0375661-2.4624339 5.5-5.5 5.5s-5.5-2.4624339-5.5-5.5c-.0034006-.7318925.1429315-1.4567468.43-2.13v-.01c.7895314-1.8703264 2.547723-3.1514595 4.57-3.33.1658927-.0202562.3328755-.0302751.5-.03 1.4586907 0 2.8576372.5794626 3.8890873 1.6109127s1.6109127 2.4303966 1.6109127 3.8890873z" fill="#f44335"/><path id="Shape" d="m28.5 26c-.1671245-.0002751-.3341073.0097438-.5.03-.331432.0323462-.6591615.0952809-.979.188 2.3513115.6827426 3.9681811 2.8375781 3.9663273 5.2860061s-1.6219846 4.6008126-3.9743273 5.2799939c2.0703706.5978007 4.2991251-.0685665 5.7015814-1.704695s1.7202136-3.9405638.8128842-5.8951874-2.8725712-3.1992987-5.0274656-3.1841176z" fill="#c81e1e"/><path id="Shape" d="m28 19.69v6.34c-2.022277.1785405-3.7804686 1.4596736-4.57 3.33l-3.43-6.36-4.31 8c-.9324488-.0021992-1.6878008-.7575512-1.69-1.69v-9.62c.0021992-.9324488.7575512-1.6878008 1.69-1.69h10.62c.9324488.0021992 1.6878008.7575512 1.69 1.69z" fill="#ffdc00"/><path id="Shape" d="m26.31 18h-3c.9324488.0021992 1.6878008.7575512 1.69 1.69v6.34c-1.011739.0901622-1.9782815.4607106-2.791 1.07l1.221 2.26c.7895314-1.8703264 2.547723-3.1514595 4.57-3.33v-6.34c-.0021992-.9324488-.7575512-1.6878008-1.69-1.69z" fill="#fec108"/><g fill="#000"><path id="Shape" d="m56 7h-15c0-1.65685425-1.3431458-3-3-3h-3v-1c0-1.65685425-1.3431458-3-3-3h-4c-1.6568542 0-3 1.34314575-3 3v1h-3c-1.6568542 0-3 1.34314575-3 3h-15c-2.209139 0-4 1.790861-4 4v31c0 2.209139 1.790861 4 4 4h3v3c0 1.6568542 1.34314575 3 3 3h8.556l-1.48 3.947c-.34533.9212493-.2170037 1.953272.3434262 2.7618951s1.4817278 1.2910635 2.4655738 1.2911049h2.727c1.2493966-.0037834 2.367017-.7777654 2.81-1.946l2.27-6.054h4.614l2.27 6.054c.4423818 1.168262 1.5597904 1.9423728 2.809 1.946h2.727c.9840228.0002866 1.9056237-.4820189 2.4662891-1.2906939.5606653-.808675.6891029-1.8408913.3437109-2.7623061l-1.48-3.947h3.015l.391 5.083c.1309888 1.6425929 1.5021925 2.9088029 3.15 2.9088029s3.0190112-1.26621 3.15-2.9088029l.852-11.083h4c2.209139 0 4-1.790861 4-4v-31c0-2.209139-1.790861-4-4-4zm-29-4c0-.55228475.4477153-1 1-1h4c.5522847 0 1 .44771525 1 1v1h-6zm-6 4c0-.55228475.4477153-1 1-1h16c.5522847 0 1 .44771525 1 1v5c0 .5522847-.4477153 1-1 1h-16c-.5522847 0-1-.4477153-1-1zm2.55 50.351c-.1464095.3905823-.5198787.6492605-.937.649h-2.728c-.3280665.0002049-.6353678-.1605186-.8223348-.4300942-.186967-.2695757-.2298166-.6137123-.1146652-.9209058l1.744-4.649h4.864zm17.5-.7c.1143793.3071269.0710054.6508074-.1160933.9198865-.1870988.2690792-.4941729.4294011-.8219067.4291135h-2.727c-.4168678.0004168-.7902627-.2578115-.937-.648l-2.006-5.352h4.864zm-1.05-6.651h-30c-.55228475 0-1-.4477153-1-1v-3h35l.307 4zm8-22c-2.174454.0311786-3.9638319-1.7036232-4-3.878 0-1.046 1.176-3.538 3.147-6.663.1891469-.2866185.5095954-.4590835.853-.4590835s.6638531.172465.853.4590835c2.839 4.503 3.147 6.158 3.147 6.66-.0345326 2.1755555-1.8243937 3.9121682-4 3.881zm.657 2c.9173588.0000241 1.7170818.6241379 1.94 1.514l.078.313c.015.057.016.116.029.173h-5.41c.013-.057.014-.115.028-.172l.079-.313c.2225301-.8902592 1.0223502-1.5148611 1.94-1.515zm-.657 28c-.6049935-.0021399-1.1076692-.4670173-1.157-1.07l-.455-5.92v-.01c0-.007 0-.013 0-.02l-1.277-16.6c-.01-.127.005-.253 0-.38h5.779c0 .127.011.253 0 .38l-1.735 22.546c-.0472991.6038011-.5493584 1.070651-1.155 1.074zm10-16c0 1.1045695-.8954305 2-2 2h-3.845l.728-9.467c.0835012-1.0711598-.0070035-2.1487733-.268-3.191l-.078-.312c-.197325-.7784379-.6258023-1.4788536-1.229-2.009 1.6712638-1.0711004 2.6849503-2.9169738 2.692-4.902 0-.556 0-2.248-3.455-7.73-.5555286-.8676097-1.5147774-1.3924421-2.545-1.3924421s-1.9894714.5248324-2.545 1.3924421c-2.294 3.637-3.455 6.237-3.455 7.73.0076587 1.9838326 1.0203731 3.8285541 2.69 4.9-.602707.5299756-1.0308226 1.2300212-1.228 2.008l-.078.312c-.2613239 1.0425147-.3524986 2.1204026-.27 3.192l.728 9.469h-39.842c-1.1045695 0-2-.8954305-2-2v-31c0-1.1045695.8954305-2 2-2h15v3c0 1.6568542 1.3431458 3 3 3h16c1.6568542 0 3-1.3431458 3-3v-3h15c1.1045695 0 2 .8954305 2 2z"/><path id="Shape" d="m54 11h-10c-.5522847 0-1 .4477153-1 1s.4477153 1 1 1h10v5c0 .5522847.4477153 1 1 1s1-.4477153 1-1v-5c0-1.1045695-.8954305-2-2-2z"/><path id="Shape" d="m37 40h-31v-27h10c.5522847 0 1-.4477153 1-1s-.4477153-1-1-1h-10c-1.1045695 0-2 .8954305-2 2v27c0 1.1045695.8954305 2 2 2h31c.5522847 0 1-.4477153 1-1s-.4477153-1-1-1z"/><path id="Shape" d="m13 19.687v9.62c.0017768.9183485.472444 1.7721871 1.248 2.264l-2.129 3.952c-.168351.3101957-.1607204.6861636.0200781.989273s.5079872.4884674.8609219.487727h12.051c2.2858224 1.4329247 5.2195138 1.3033545 7.3701085-.3255101s3.0701276-4.4177341 2.3100784-7.0062824c-.7600491-2.5885484-3.0413634-4.4375857-5.7311869-4.6452075v-5.336c-.0033063-1.4841788-1.2068179-2.6859014-2.691-2.687h-10.62c-1.4834012.0021997-2.6856966 1.2036008-2.689 2.687zm7 5.418 2.339 4.336c-.6301462 1.8613473-.3756702 3.9085719.691 5.559h-8.357zm13 6.395c0 2.4852814-2.0147186 4.5-4.5 4.5s-4.5-2.0147186-4.5-4.5 2.0147186-4.5 4.5-4.5 4.5 2.0147186 4.5 4.5zm-6-11.81v5.492c-1.3759481.3267733-2.6080649 1.0927218-3.51 2.182l-2.61-4.838c-.1743063-.3237997-.5122652-.525807-.88-.526-.3677348.000193-.7056937.2022003-.88.526l-3.92 7.274c-.1289007-.1300116-.2008475-.3059216-.2-.489v-9.62c.0005508-.3808481.3091519-.6894492.69-.69h10.62c.3792946.000539.6872558.3067149.69.686z"/></g></g></g></svg>