<svg id="Capa_1" enable-background="new 0 0 512 512" height="512" viewBox="0 0 512 512" width="512" xmlns="http://www.w3.org/2000/svg"><g><g><path d="m432.468 68.082-28.227-21.529 17.955-23.541c5.945-7.795 17.083-9.294 24.878-3.349 7.795 5.945 9.294 17.083 3.349 24.878z" fill="#f4fbff"/></g><g><path d="m447.074 19.663c-2.31-1.762-4.916-2.854-7.591-3.338 2.788 5.821 2.306 12.955-1.878 18.44l-17.955 23.541 12.818 9.776 17.955-23.541c5.945-7.795 4.446-18.933-3.349-24.878z" fill="#e4f6ff"/></g><g><path d="m443.061 139.612-110.604-84.36c-2.196-1.675-2.618-4.812-.943-7.008l9.425-12.357c13.397-17.565 38.498-20.944 56.063-7.547l54.946 41.908c17.565 13.397 20.944 38.498 7.547 56.063l-9.425 12.357c-1.676 2.196-4.813 2.618-7.009.944z" fill="#365e7d"/></g><g><path d="m461.852 81.171c-1.333 4.589-3.509 9.016-6.581 13.043l-9.519 12.48c-1.669 2.188-4.796 2.609-6.984.94l-96.4-73.526c-.461.542-.911 1.097-1.347 1.669l-9.519 12.48c-1.669 2.188-1.248 5.315.94 6.984l110.632 84.38c2.188 1.669 5.315 1.248 6.984-.94l9.519-12.48c10.279-13.476 10.638-31.4 2.275-45.03z" fill="#2b4d66"/></g><g><path d="m82.297 68.082 28.227-21.529-17.956-23.541c-5.945-7.795-17.083-9.294-24.878-3.349-7.795 5.945-9.294 17.083-3.349 24.878z" fill="#f4fbff"/></g><g><path d="m81.364 32.826 17.343 22.739 11.816-9.013-17.955-23.54c-5.945-7.795-17.083-9.294-24.878-3.349-2.462 1.878-4.291 4.274-5.461 6.918 6.855-2.021 14.543.224 19.135 6.245z" fill="#e4f6ff"/></g><g><path d="m71.704 139.612 110.604-84.36c2.196-1.675 2.618-4.812.943-7.008l-9.425-12.357c-13.397-17.565-38.498-20.944-56.063-7.547l-54.945 41.909c-17.565 13.397-20.944 38.498-7.547 56.063l9.425 12.357c1.674 2.195 4.812 2.617 7.008.943z" fill="#365e7d"/></g><g><path d="m183.262 48.258-9.519-12.48c-9.538-12.506-25.029-17.79-39.482-14.923 3.533 2.373 6.749 5.346 9.473 8.918l9.519 12.48c1.669 2.188 1.248 5.315-.94 6.984l-98.462 75.098c.427.631.869 1.255 1.336 1.868l9.519 12.48c1.669 2.188 4.796 2.609 6.984.94l110.632-84.38c2.188-1.67 2.609-4.797.94-6.985z" fill="#2b4d66"/></g><g><path d="m196.612 430.719-61.914-34.255-27.607 80.128c-3.332 9.671.766 20.337 9.716 25.289 8.95 4.952 20.164 2.757 26.587-5.203z" fill="#365e7d"/></g><g><path d="m174.916 418.715-52.048 64.508c-3.921 4.859-9.628 7.556-15.515 7.805 1.729 4.485 4.987 8.381 9.454 10.852 8.95 4.952 20.164 2.757 26.587-5.203l53.218-65.958z" fill="#2b4d66"/></g><g><path d="m318.153 430.719 61.914-34.255 27.607 80.128c3.332 9.671-.766 20.337-9.716 25.289-8.95 4.952-20.164 2.757-26.587-5.203z" fill="#365e7d"/></g><g><path d="m407.673 476.591-27.607-80.128-21.274 11.77 25.612 74.337c2.501 7.259.815 15.078-3.966 20.621 5.595 2.072 11.987 1.748 17.518-1.311 8.951-4.952 13.049-15.618 9.717-25.289z" fill="#2b4d66"/></g><g><circle cx="257.382" cy="289.055" fill="#ffe07d" r="183.405"/></g><g><path d="m354.959 133.747c17.794 28.261 28.097 61.714 28.097 97.577 0 101.291-82.113 183.405-183.405 183.405-35.863 0-69.315-10.303-97.576-28.097 32.463 51.56 89.879 85.828 155.308 85.828 101.292 0 183.405-82.113 183.405-183.405-.001-65.429-34.269-122.845-85.829-155.308z" fill="#ffd064"/></g><g><g><path d="m257.382 487.906c-109.647 0-198.851-89.204-198.851-198.851s89.204-198.851 198.851-198.851 198.851 89.204 198.851 198.851-89.204 198.851-198.851 198.851zm0-366.809c-92.612 0-167.958 75.346-167.958 167.958s75.346 167.958 167.958 167.958 167.958-75.346 167.958-167.958-75.345-167.958-167.958-167.958z" fill="#f4fbff"/></g></g><g><g><path d="m390.924 141.841c32.07 35.321 51.638 82.189 51.638 133.542 0 109.647-89.204 198.851-198.851 198.851-51.353 0-98.221-19.568-133.541-51.638 36.405 40.095 88.919 65.31 147.214 65.31 109.647 0 198.851-89.204 198.851-198.851-.002-58.294-25.217-110.809-65.311-147.214z" fill="#e4f6ff"/></g></g><g><circle cx="257.382" cy="289.055" fill="#365e7d" r="28.238"/></g><g><path d="m267.468 262.678c1.199 3.133 1.862 6.531 1.862 10.086 0 15.596-12.643 28.238-28.238 28.238-3.555 0-6.953-.663-10.086-1.862 4.061 10.613 14.335 18.153 26.376 18.153 15.596 0 28.238-12.643 28.238-28.238.001-12.041-7.539-22.316-18.152-26.377z" fill="#2b4d66"/></g><g><path d="m392.358 34.2 55.166 42.075c4.703 3.587 8.328 8.373 10.482 13.84 1.513 3.841 5.856 5.729 9.694 4.213 3.84-1.513 5.726-5.853 4.213-9.694-3.154-8.004-8.452-15.004-15.323-20.245l-7.527-5.741 7.304-9.575c8.434-11.059 6.299-26.919-4.76-35.353-5.357-4.086-11.988-5.842-18.663-4.942-6.677.899-12.605 4.344-16.691 9.701l-7.303 9.575-7.526-5.74c-14.744-11.244-34.028-12.469-49.637-4.803l-1.843-1.942c-9.391-9.894-22.602-15.569-36.243-15.569h-112.637c-13.642 0-26.853 5.675-36.244 15.57l-1.842 1.941c-15.61-7.667-34.894-6.441-49.637 4.803l-7.526 5.74-7.303-9.576c-8.436-11.058-24.295-13.193-35.354-4.758-5.357 4.086-8.803 10.014-9.702 16.691-.899 6.678.857 13.305 4.943 18.662l7.303 9.575-7.526 5.74c-20.754 15.829-24.76 45.592-8.931 66.345l9.518 12.479c2.017 2.647 4.945 4.348 8.243 4.792 3.26.446 6.573-.418 9.217-2.441l49.373-37.657 10.784 14.138c-51.662 37.534-85.322 98.41-85.322 167.009 0 57.635 23.764 109.816 61.996 147.287l-13.028 37.815c-4.524 13.13 1.013 27.54 13.164 34.263 4.366 2.416 9.118 3.581 13.821 3.58 8.386 0 16.613-3.705 22.201-10.63l20.596-25.527c26.599 12.521 56.281 19.537 87.575 19.537 30.853 0 60.655-6.868 87.592-19.516l20.58 25.506c5.588 6.925 13.815 10.63 22.201 10.63 4.702 0 9.456-1.165 13.821-3.58 12.151-6.723 17.688-21.132 13.164-34.263l-13.004-37.743c14.754-14.468 27.478-31.282 37.573-50.089 1.952-3.637.586-8.168-3.051-10.12-3.638-1.953-8.167-.586-10.12 3.051-33.497 62.409-98.16 101.178-168.755 101.178-105.526 0-191.377-85.851-191.377-191.377s85.85-191.377 191.375-191.377 191.377 85.851 191.377 191.377c0 20.623-3.277 40.919-9.74 60.327-1.304 3.917.814 8.149 4.731 9.453 3.917 1.303 8.149-.814 9.453-4.73 6.97-20.934 10.505-42.82 10.505-65.05 0-68.599-33.66-129.475-85.322-167.009l10.783-14.138 49.373 37.657c5.262 4.178 13.503 3.054 17.459-2.35l9.521-12.482c1.362-1.787 2.603-3.676 3.688-5.615 2.016-3.602.732-8.156-2.87-10.173-3.605-2.016-8.156-.73-10.173 2.871-.745 1.328-1.597 2.626-2.532 3.854l-8.008 10.499-106.67-81.359 8.008-10.499c10.83-14.2 31.194-16.942 45.393-6.111zm35.78-6.656c3.437-4.506 9.897-5.374 14.403-1.939 4.505 3.436 5.375 9.897 1.94 14.402l-7.304 9.576-16.341-12.463zm-27.53 451.482c2.154 6.252-.483 13.113-6.268 16.314-5.786 3.2-12.999 1.789-17.152-3.357l-18.652-23.117c11.002-6.199 21.431-13.406 31.15-21.54zm-263.031 12.957c-4.153 5.146-11.365 6.556-17.151 3.357-5.786-3.201-8.422-10.062-6.268-16.314l10.943-31.762c9.673 8.101 20.097 15.332 31.151 21.575zm-67.293-451.974c-1.665-2.182-2.38-4.883-2.014-7.603s1.77-5.135 3.952-6.8c4.503-3.435 10.965-2.567 14.403 1.939l7.303 9.576-16.34 12.463zm-1.146 92.159-8.008-10.499c-10.831-14.2-8.089-34.564 6.111-45.394l55.165-42.075c5.855-4.466 12.754-6.623 19.604-6.623 9.764 0 19.425 4.388 25.79 12.734l8.007 10.499zm253.982-79.226c.444 3.298 2.145 6.225 4.79 8.242l49.373 37.657-11.323 14.845c-29.575-18.378-64.113-29.483-101.104-30.808v-17.977h25.956c4.128 0 7.474-3.346 7.474-7.474s-3.346-7.474-7.474-7.474h-66.861c-4.128 0-7.474 3.346-7.474 7.474s3.346 7.474 7.474 7.474h25.957v17.979c-36.991 1.324-71.529 12.43-101.104 30.808l-11.323-14.845 49.372-37.657c2.647-2.017 4.348-4.945 4.792-8.243s-.423-6.571-2.441-9.217l-9.518-12.48c-1.366-1.791-2.842-3.448-4.401-4.988l.377-.397c6.582-6.935 15.84-10.912 25.401-10.912h112.637c9.561 0 18.819 3.977 25.4 10.912l.378.398c-1.558 1.54-3.034 3.196-4.4 4.987l-9.519 12.48c-2.017 2.645-2.884 5.918-2.439 9.216z"/><path d="m134.483 174.446c-3.138-2.68-7.856-2.308-10.537.831-27.082 31.716-41.996 72.123-41.996 113.778 0 96.734 78.698 175.432 175.432 175.432s175.432-78.698 175.432-175.432-78.698-175.432-175.432-175.432c-39.104 0-76.131 12.639-107.077 36.552-3.266 2.524-3.868 7.218-1.344 10.484 2.523 3.265 7.217 3.869 10.484 1.344 28.304-21.871 62.171-33.432 97.937-33.432 88.491 0 160.484 71.993 160.484 160.484s-71.993 160.484-160.484 160.484-160.484-71.993-160.484-160.484c0-38.099 13.643-75.059 38.415-104.071 2.681-3.139 2.309-7.857-.83-10.538z"/><path d="m257.382 164.113c-4.128 0-7.474 3.346-7.474 7.474v82.548c-13.703 2.93-24.515 13.742-27.445 27.445h-38.18c-4.128 0-7.474 3.346-7.474 7.474s3.346 7.474 7.474 7.474h38.18c3.446 16.115 17.791 28.238 34.919 28.238 19.692 0 35.712-16.021 35.712-35.712 0-17.128-12.123-31.473-28.238-34.919v-82.548c0-4.128-3.345-7.474-7.474-7.474zm20.764 124.942c0 11.449-9.314 20.764-20.764 20.764-11.449 0-20.764-9.315-20.764-20.764s9.315-20.764 20.764-20.764c11.45 0 20.764 9.315 20.764 20.764z"/><path d="m211.886 234.581c-3.774-1.669-8.188.034-9.86 3.809-2.087 4.713-6.76 7.758-11.907 7.758-5.146 0-9.82-3.045-11.906-7.758-1.671-3.776-6.087-5.48-9.86-3.809-3.775 1.671-5.48 6.085-3.809 9.86 4.479 10.118 14.518 16.655 25.575 16.655s21.096-6.537 25.575-16.655c1.671-3.775-.034-8.189-3.808-9.86z"/><path d="m324.645 261.096c11.057 0 21.096-6.537 25.576-16.655 1.671-3.775-.035-8.189-3.809-9.86-3.774-1.67-8.188.034-9.86 3.809-2.087 4.713-6.76 7.758-11.906 7.758s-9.82-3.045-11.905-7.757c-1.67-3.775-6.085-5.48-9.859-3.81-3.775 1.67-5.481 6.085-3.81 9.859 4.476 10.118 14.514 16.656 25.573 16.656z"/><path d="m178.983 316.261c-1.671-3.776-6.087-5.482-9.859-3.809-3.775 1.67-5.48 6.085-3.809 9.859 16.124 36.428 52.264 59.966 92.068 59.966s75.943-23.538 92.069-59.966c1.671-3.775-.035-8.189-3.809-9.86-3.774-1.67-8.188.034-9.86 3.809-13.733 31.023-44.507 51.069-78.4 51.069-33.894 0-64.668-20.045-78.4-51.068z"/></g></g></svg>