<svg width="142" height="174" viewBox="0 0 142 174" fill="none" xmlns="http://www.w3.org/2000/svg">
<path d="M89.9004 35.709L107.213 30.5234C108.744 30.0649 110.55 31.3645 111.4 33.6049L134.264 93.9335C135.114 96.1739 134.483 98.3214 133.028 98.9828L115.716 106.854C114.261 107.515 112.346 106.025 111.529 103.772L88.664 40.7583C87.8467 38.5061 88.3695 36.1675 89.9004 35.709Z" fill="black"/>
<path d="M93.7149 0C85.1305 0 78.1333 6.68483 77.5636 15.1248L102.886 2.80595C100.282 1.02428 97.1082 0 93.7149 0ZM104.733 4.31159L77.632 17.5885C78.3355 25.8963 85.2251 32.4396 93.7149 32.4396C102.672 32.4396 109.935 25.1767 109.935 16.2198C109.935 11.5137 107.935 7.27415 104.733 4.31159V4.31159ZM100.285 13.4823C100.285 13.4823 107.801 16.8706 106.718 19.6417C106.306 20.696 104.262 20.3693 103.296 19.7785C101.316 18.5673 100.285 13.4823 100.285 13.4823V13.4823Z" fill="black"/>
<path d="M119.564 95.7688C120.273 94.1173 119.516 92.2244 117.865 91.5161L52.2535 63.3754C50.602 62.6671 48.7092 63.4237 48.0008 65.0751L43.7459 74.9957C43.0376 76.6472 43.7941 78.5401 45.4456 79.2484L111.057 107.389C112.708 108.097 114.601 107.341 115.309 105.689L119.564 95.7688Z" fill="black"/>
<path d="M117.417 95.895C115.638 96.15 114.368 97.7884 114.623 99.5671L124.754 170.236C125.009 172.015 126.689 173.23 128.468 172.975L139.153 171.443C140.932 171.188 142.154 169.557 141.899 167.778L131.768 97.1091C131.513 95.3303 129.881 94.108 128.103 94.363L117.417 95.895V95.895Z" fill="black"/>
<path d="M49.1988 64.6264L47.499 60.6497C46.7928 58.9973 47.5544 57.0985 49.2068 56.3923L102.893 33.445C104.545 32.7388 106.444 33.5004 107.15 35.1528L108.85 39.1295C109.556 40.7818 108.795 42.6807 107.142 43.3869L53.4562 66.3341C51.8039 67.0404 49.9051 66.2788 49.1988 64.6264V64.6264Z" fill="black"/>
<path d="M50.0687 82.5189C49.312 82.6036 48.6083 82.9485 48.0777 83.4946C47.5472 84.0408 47.2228 84.7542 47.1601 85.513C47.1601 85.513 44.4945 114.851 43.4816 125.464C42.9419 131.117 43.4381 134.668 43.3104 136.157C43.2466 136.901 43.2361 137.007 42.9683 137.355C42.7004 137.703 41.9123 138.365 40.4018 139.237C40.1943 139.357 37.1915 139.851 33.4725 139.493C29.7535 139.136 25.2415 138.332 20.897 137.355C12.2081 135.399 4.30086 132.906 4.30086 132.906C3.88508 132.777 3.44785 132.73 3.01415 132.77C2.58044 132.809 2.15877 132.934 1.77323 133.136C1.38768 133.339 1.04583 133.615 0.767196 133.95C0.488565 134.285 0.278621 134.671 0.149363 135.087C0.0201051 135.503 -0.0259325 135.94 0.0138802 136.374C0.0536929 136.807 0.178576 137.229 0.381392 137.614C0.584208 138 0.860983 138.341 1.1959 138.62C1.53081 138.898 1.91729 139.108 2.33327 139.237C2.33327 139.237 10.4411 141.745 19.4427 143.771C23.9435 144.784 28.6869 145.679 32.8737 146.081C37.0605 146.483 40.554 146.806 43.7382 144.968C45.6194 143.883 47.0158 142.785 48.1011 141.375C49.1864 139.966 49.6829 138.263 49.8121 136.756C50.0705 133.741 49.5073 131.133 49.9832 126.148C51.0012 115.482 53.7472 86.1119 53.7472 86.1119C53.7974 85.6202 53.736 85.1235 53.5675 84.6589C53.3991 84.1942 53.128 83.7736 52.7744 83.4283C52.4209 83.0829 51.994 82.8218 51.5255 82.6643C51.057 82.5069 50.5591 82.4572 50.0687 82.5189H50.0687Z" fill="black"/>
<path d="M21.6499 141.598V168.342H8.16766V172.722H45.5347V168.342H26.0299V141.598H21.6499Z" fill="black"/>
<path d="M112.176 15.0221L112.433 15.5354C112.433 15.5354 113.079 16.6873 113.973 17.9307C114.866 19.1742 116.02 20.5652 117.309 20.9249C117.921 21.0957 118.723 21.1718 119.448 21.0104C119.81 20.9297 120.111 20.7942 120.389 20.5827C120.667 20.3712 120.866 20.0206 120.902 19.6416C120.987 18.7503 120.476 17.9845 119.704 17.4174C118.932 16.8504 117.901 16.3945 116.881 16.0487C114.842 15.3569 112.775 15.1076 112.775 15.1076L112.176 15.0221V15.0221ZM113.459 15.8776C114.02 15.9739 115.115 16.1922 116.71 16.733C117.695 17.0669 118.599 17.4327 119.277 17.9307C119.955 18.4287 120.36 18.9667 120.303 19.5561C120.286 19.7405 120.217 19.8546 120.047 19.9838C119.877 20.1131 119.576 20.2595 119.277 20.326C118.679 20.4592 117.958 20.4594 117.48 20.326C116.533 20.0619 115.349 18.7891 114.486 17.5885C113.855 16.7111 113.675 16.2649 113.459 15.8776Z" fill="black"/>
</svg>
