<svg id="Layer_1" data-name="Layer 1" xmlns="http://www.w3.org/2000/svg" xmlns:xlink="http://www.w3.org/1999/xlink" viewBox="0 0 781.45 557.96"><defs><style>.cls-1{fill:url(#linear-gradient);}.cls-2{font-size:201.85px;font-family:FredokaOne-Regular, Fredoka One;}</style><linearGradient id="linear-gradient" x1="84.68" y1="171.16" x2="694.82" y2="171.16" gradientUnits="userSpaceOnUse"><stop offset="0" stop-color="#fff33b"/><stop offset="0.05" stop-color="#e1ed2b"/><stop offset="0.1" stop-color="#c6e81e"/><stop offset="0.16" stop-color="#b3e414"/><stop offset="0.22" stop-color="#a8e20e"/><stop offset="0.28" stop-color="#a4e10c"/><stop offset="0.67" stop-color="#67e776"/><stop offset="1" stop-color="#41ffc6"/></linearGradient></defs><path d="M577.55,279.39l-7.13-5.09c-.68-.49-1.37-1-2-1.48a2.91,2.91,0,0,1-.82-3.7,1.94,1.94,0,0,1,3-.84c3.78,2.67,7.57,5.35,11.31,8.1a3.71,3.71,0,0,1,0,6c-3.74,2.83-7.53,5.55-11.32,8.29a2,2,0,0,1-3-.91,2.91,2.91,0,0,1,.82-3.63c2.73-2,5.48-4,8.22-6C576.91,279.89,577.16,279.69,577.55,279.39Z"/><path d="M534.82,278.58l1.35,1,7.6,5.56a2.92,2.92,0,0,1,1.18,3.19c-.46,1.71-2,2.36-3.35,1.38-2.75-2-5.49-4-8.23-6-.92-.67-1.84-1.33-2.75-2a3.79,3.79,0,0,1,0-6.27c3.69-2.68,7.4-5.31,11.11-7.94a2,2,0,0,1,3.08.81,3,3,0,0,1-.93,3.76c-2.75,2-5.52,3.95-8.28,5.93C535.37,278.14,535.15,278.32,534.82,278.58Z"/><path d="M562.65,258.26c0,.66-.06,1.28-.16,1.88q-3.39,19.78-6.81,39.56a15.52,15.52,0,0,1-.3,1.54c-.5,1.8-2,2.7-3.48,2.16a3.62,3.62,0,0,1-2.12-4c1.12-6.78,2.29-13.54,3.45-20.31q1.8-10.53,3.63-21.07c.26-1.49.93-2.53,2.25-2.81a2.59,2.59,0,0,1,3,1.51A9.6,9.6,0,0,1,562.65,258.26Z"/><path class="cls-1" d="M690.41,134.47c-12.85-54.85-54.62-93.37-113-99.56-38.12-4-72.93,5.92-104.94,26.63-23.45,15.16-43.8,34-63.8,53.22-6.29,6.06-12.59,12.1-19.3,18.55-2.53-2.75-4.58-5.17-6.83-7.38-20.42-20-40.63-40.2-63.7-57.27-35.85-26.53-75-40.71-120.22-32-44.18,8.5-77.42,32.21-98.4,72-17,32.23-19.44,66.41-10.44,101.48,8.52,33.17,26.27,60.12,55.87,78,38,23,78.56,25.31,120.4,12.29,30.14-9.38,55.11-27.43,78.27-48.11,15.48-13.82,30.27-28.4,46-43.26,3.23,3.41,6.25,6.73,9.4,9.91,20.85,21,42,41.75,66.44,58.67,17,11.74,34.66,20.63,53.24,25.7a43.55,43.55,0,0,1,5.8-55.76q-3.56-1.18-7-2.65c-18.6-7.9-34.45-19.88-49.14-33.42-14.26-13.16-28.07-26.83-42.21-40.4,23.73-24.24,46.83-48.81,76.5-65.79,17-9.72,35.06-15.68,54.85-15.66,35.58,0,65.29,22.32,74.51,56.71,8.09,30.18,2.42,57.53-19.17,80.75a78.39,78.39,0,0,1-28.63,19.64A43.54,43.54,0,0,1,591.77,303c36.81-9.71,65.39-31,84.91-64.68C695.57,205.77,698.9,170.7,690.41,134.47ZM264.31,242.8c-27.17,12.21-54.82,14.5-81.84-.62-22.45-12.55-34.36-32.62-38.13-57.54-3.48-23,1.36-44.35,15.86-62.76,20.48-26,47.53-36.09,80.19-30.76,24.31,4,44.15,16.94,62.12,32.73,17.08,15,33.29,31,50.38,47C325.54,198.46,299.85,226.81,264.31,242.8Z"/><text class="cls-2" transform="translate(98.72 476.3)">inator</text></svg>