<svg width="154" height="154" viewBox="0 0 154 154" fill="none" xmlns="http://www.w3.org/2000/svg">
<path d="M87.2667 71.8667H83.7259C85.307 70.4957 86.4314 68.6742 86.9485 66.6463C87.4655 64.6184 87.3505 62.481 86.6188 60.5203C85.8872 58.5596 84.5738 56.8693 82.8546 55.6759C81.1355 54.4825 79.0927 53.843 76.9999 53.843C74.9072 53.843 72.8644 54.4825 71.1452 55.6759C69.4261 56.8693 68.1127 58.5596 67.381 60.5203C66.6494 62.481 66.5343 64.6184 67.0514 66.6463C67.5684 68.6742 68.6928 70.4957 70.274 71.8667H66.7333C64.6912 71.8667 62.7326 72.6779 61.2886 74.1219C59.8446 75.566 59.0333 77.5245 59.0333 79.5667V94.9667L64.1667 97.5333V123.2H89.8333V97.5333L94.9667 94.9667V79.5667C94.9667 77.5245 94.1554 75.566 92.7114 74.1219C91.2673 72.6779 89.3088 71.8667 87.2667 71.8667ZM79.5667 83.7199V92.4H74.4333V83.7199L70.7187 81.8626L73.0146 77.2707L77 79.2634L80.9853 77.2707L83.2813 81.8626L79.5667 83.7199Z" fill="black"/>
<path d="M115.357 35.9333H105.233V41.0667H109.304L95.7186 54.652L99.3481 58.2813L112.933 44.6961V48.7667H118.067V38.6429C118.04 37.9327 117.746 37.2588 117.244 36.7563C116.741 36.2538 116.067 35.9599 115.357 35.9333Z" fill="black"/>
<path d="M112.933 114.437L99.3479 100.852L95.7186 104.481L109.304 118.067H105.233V123.2H115.357C116.067 123.174 116.741 122.88 117.244 122.377C117.746 121.875 118.04 121.201 118.067 120.491V110.367H112.933V114.437Z" fill="black"/>
<path d="M54.652 100.852L41.0667 114.437V110.367H35.9333V120.49C35.9599 121.201 36.2538 121.874 36.7563 122.377C37.2588 122.879 37.9327 123.173 38.6429 123.2H48.7667V118.067H44.6961L58.2815 104.481L54.652 100.852Z" fill="black"/>
<path d="M48.7667 41.0667V35.9333H38.6429C37.9327 35.9599 37.2588 36.2538 36.7563 36.7563C36.2538 37.2588 35.9599 37.9327 35.9333 38.6429V48.7667H41.0667V44.6961L54.652 58.2815L58.2813 54.652L44.6961 41.0667H48.7667Z" fill="black"/>
<path d="M138.6 0C135.554 0 132.577 0.903194 130.044 2.59537C127.512 4.28754 125.538 6.69269 124.372 9.50667C123.207 12.3207 122.902 15.4171 123.496 18.4044C124.09 21.3917 125.557 24.1357 127.711 26.2894C129.864 28.4432 132.608 29.9099 135.596 30.5041C138.583 31.0983 141.679 30.7933 144.493 29.6277C147.307 28.4622 149.712 26.4883 151.405 23.9558C153.097 21.4233 154 18.4458 154 15.4C154 11.3157 152.377 7.39862 149.489 4.51056C146.601 1.6225 142.684 0 138.6 0V0ZM146.3 17.9667H141.167V23.1H136.033V17.9667H130.9V12.8333H136.033V7.7H141.167V12.8333H146.3V17.9667Z" fill="black"/>
<path d="M138.6 123.2C135.554 123.2 132.577 124.103 130.044 125.795C127.512 127.488 125.538 129.893 124.372 132.707C123.207 135.521 122.902 138.617 123.496 141.604C124.09 144.592 125.557 147.336 127.711 149.489C129.864 151.643 132.608 153.11 135.596 153.704C138.583 154.298 141.679 153.993 144.493 152.828C147.307 151.662 149.712 149.688 151.405 147.156C153.097 144.623 154 141.646 154 138.6C154 134.516 152.377 130.599 149.489 127.711C146.601 124.823 142.684 123.2 138.6 123.2V123.2ZM146.3 141.167H141.167V146.3H136.033V141.167H130.9V136.033H136.033V130.9H141.167V136.033H146.3V141.167Z" fill="black"/>
<path d="M15.4 0C12.3542 0 9.37674 0.903194 6.84423 2.59537C4.31171 4.28754 2.33785 6.69269 1.17226 9.50667C0.0066726 12.3207 -0.298299 15.4171 0.295914 18.4044C0.890126 21.3917 2.35683 24.1357 4.51056 26.2894C6.66429 28.4432 9.40831 29.9099 12.3956 30.5041C15.3829 31.0983 18.4793 30.7933 21.2933 29.6277C24.1073 28.4622 26.5125 26.4883 28.2046 23.9558C29.8968 21.4233 30.8 18.4458 30.8 15.4C30.8 11.3157 29.1775 7.39862 26.2894 4.51056C23.4014 1.6225 19.4843 0 15.4 0V0ZM23.1 17.9667H17.9667V23.1H12.8333V17.9667H7.70001V12.8333H12.8333V7.7H17.9667V12.8333H23.1V17.9667Z" fill="black"/>
<path d="M77 0C73.9542 0 70.9767 0.903194 68.4442 2.59537C65.9117 4.28754 63.9379 6.69269 62.7723 9.50667C61.6067 12.3207 61.3017 15.4171 61.8959 18.4044C62.4901 21.3917 63.9568 24.1357 66.1106 26.2894C68.2643 28.4432 71.0083 29.9099 73.9956 30.5041C76.9829 31.0983 80.0794 30.7933 82.8933 29.6277C85.7073 28.4622 88.1125 26.4883 89.8046 23.9558C91.4968 21.4233 92.4 18.4458 92.4 15.4C92.4 11.3157 90.7775 7.39862 87.8895 4.51056C85.0014 1.6225 81.0843 0 77 0V0ZM84.7 17.9667H69.3V12.8333H84.7V17.9667Z" fill="black"/>
<path d="M15.4 123.2C12.3542 123.2 9.37674 124.103 6.84423 125.795C4.31171 127.488 2.33785 129.893 1.17226 132.707C0.0066726 135.521 -0.298299 138.617 0.295914 141.604C0.890126 144.592 2.35683 147.336 4.51056 149.489C6.66429 151.643 9.40831 153.11 12.3956 153.704C15.3829 154.298 18.4793 153.993 21.2933 152.828C24.1073 151.662 26.5125 149.688 28.2046 147.156C29.8968 144.623 30.8 141.646 30.8 138.6C30.8 134.516 29.1775 130.599 26.2894 127.711C23.4014 124.823 19.4843 123.2 15.4 123.2V123.2ZM23.1 141.167H17.9667V146.3H12.8333V141.167H7.70001V136.033H12.8333V130.9H17.9667V136.033H23.1V141.167Z" fill="black"/>
<path d="M15.4 61.6C12.3542 61.6 9.37674 62.5032 6.84423 64.1953C4.31171 65.8875 2.33785 68.2927 1.17226 71.1066C0.0066726 73.9206 -0.298299 77.0171 0.295914 80.0044C0.890126 82.9917 2.35683 85.7357 4.51056 87.8894C6.66429 90.0431 9.40831 91.5099 12.3956 92.1041C15.3829 92.6983 18.4793 92.3933 21.2933 91.2277C24.1073 90.0621 26.5125 88.0883 28.2046 85.5558C29.8968 83.0232 30.8 80.0458 30.8 77C30.8 72.9156 29.1775 68.9986 26.2894 66.1105C23.4014 63.2225 19.4843 61.6 15.4 61.6ZM23.1 79.5666H7.70001V74.4333H23.1V79.5666Z" fill="black"/>
<path d="M138.6 61.6C135.554 61.6 132.577 62.5032 130.044 64.1953C127.512 65.8875 125.538 68.2927 124.372 71.1066C123.207 73.9206 122.902 77.0171 123.496 80.0044C124.09 82.9917 125.557 85.7357 127.711 87.8894C129.864 90.0431 132.608 91.5099 135.596 92.1041C138.583 92.6983 141.679 92.3933 144.493 91.2277C147.307 90.0621 149.712 88.0883 151.405 85.5558C153.097 83.0232 154 80.0458 154 77C154 72.9156 152.377 68.9986 149.489 66.1105C146.601 63.2225 142.684 61.6 138.6 61.6V61.6ZM146.3 79.5666H130.9V74.4333H146.3V79.5666Z" fill="black"/>
<path d="M87.2667 148.867H82.1333V154H87.2667V148.867Z" fill="black"/>
<path d="M74.4333 148.867H69.3V154H74.4333V148.867Z" fill="black"/>
</svg>
