<svg id="Layer_3" enable-background="new 0 0 64 64" height="512" viewBox="0 0 64 64" width="512" xmlns="http://www.w3.org/2000/svg"><g><g><path d="m42 2h-32v8h-8v48h40z" fill="#b9c0c9"/></g><g><g><path d="m42 6v52h-36v4h40v-56z" fill="#8b9097"/></g></g><g><g><path d="m6 42h32v12h-32z" fill="#d5d9df"/></g></g><g><g><path d="m6 42h29v12h-29z" fill="#f1f2f4"/></g></g><g><path d="m6 36h32v6h-32z" fill="#a8575d"/></g><g><path d="m6 36h29v6h-29z" fill="#e0747c"/></g><g><path d="m10 2-8 8h8z" fill="#8b9097"/></g><g><path d="m24 14h38v18h-38z" fill="#a8575d"/></g><g><path d="m24 14h35v18h-35z" fill="#e0747c"/></g><g><g><path d="m39 17h2v12h-2z" fill="#f1f2f4"/></g></g><g><g><path d="m45 17h2v12h-2z" fill="#f1f2f4"/></g></g><g><g><path d="m40 22h6v2h-6z" fill="#f1f2f4"/></g></g><g><g><path d="m31 29h-2v-11c0-.552.447-1 1-1h3c2.206 0 4 1.794 4 4s-1.794 4-4 4h-2zm0-6h2c1.103 0 2-.897 2-2s-.897-2-2-2h-2z" fill="#f1f2f4"/></g></g><g><g><path d="m51 29h-2v-11c0-.552.447-1 1-1h3c2.206 0 4 1.794 4 4s-1.794 4-4 4h-2zm0-6h2c1.103 0 2-.897 2-2s-.897-2-2-2h-2z" fill="#f1f2f4"/></g></g><g><g><path d="m5 13h16v2h-16z" fill="#f1f2f4"/></g></g><g><g><path d="m5 17h16v2h-16z" fill="#f1f2f4"/></g></g><g><g><path d="m5 21h16v2h-16z" fill="#f1f2f4"/></g></g><g><g><path d="m5 25h16v2h-16z" fill="#f1f2f4"/></g></g><g><g><path d="m5 29h16v2h-16z" fill="#f1f2f4"/></g></g><g><g><path d="m13 5h26v2h-26z" fill="#f1f2f4"/></g></g><g><g><path d="m13 9h26v2h-26z" fill="#f1f2f4"/></g></g><g><g><path d="m21 42h2v12h-2z" fill="#8b9097"/></g></g><g><g><path d="m9 45h10v2h-10z" fill="#8b9097"/></g></g><g><g><path d="m9 49h10v2h-10z" fill="#8b9097"/></g></g><g><g><path d="m25 45h10v2h-10z" fill="#8b9097"/></g></g><g><g><path d="m25 49h10v2h-10z" fill="#8b9097"/></g></g></g></svg>