<svg id="Layer_3" enable-background="new 0 0 64 64" height="512" viewBox="0 0 64 64" width="512" xmlns="http://www.w3.org/2000/svg"><g><g><path d="m49 62h-34v-30c0-3.314 2.686-6 6-6h22c3.314 0 6 2.686 6 6z" fill="#54585e"/></g><g><path d="m15 34h34v28h-34z" fill="#8bd2f5"/></g><g><path d="m24 50v4c0 1.105-.895 2-2 2h-18c-1.105 0-2-.895-2-2v-14c0-1.105.895-2 2-2h18c1.105 0 2 .895 2 2v4l4 3z" fill="#a8b0bc"/></g><g><path d="m2 40v11.802c.814.122 1.646.198 2.5.198 8.008 0 14.5-5.596 14.5-12.5 0-.509-.046-1.007-.114-1.5h-14.886c-1.105 0-2 .895-2 2z" fill="#cbd0d7"/></g><g><path d="m40 54v4c0 1.105.895 2 2 2h16c1.105 0 2-.895 2-2v-14c0-1.105-.895-2-2-2h-16c-1.105 0-2 .895-2 2v4l-4 3z" fill="#a8b0bc"/></g><g><path d="m40 44v4l-4 3 4 3v2.308c1.241.441 2.587.692 4 .692 6.075 0 11-4.477 11-10 0-1.824-.546-3.528-1.484-5h-11.516c-1.105 0-2 .895-2 2z" fill="#cbd0d7"/></g><g><path d="m38 28v-20c0-1.105.895-2 2-2h20c1.105 0 2 .895 2 2v20c0 1.105-.895 2-2 2h-8l-6 6v-6h-6c-1.105 0-2-.895-2-2z" fill="#a8b0bc"/></g><g><path d="m38 8v18.691c.973.196 1.974.309 3 .309 8.837 0 16-7.611 16-17 0-1.38-.172-2.715-.464-4h-16.536c-1.105 0-2 .895-2 2z" fill="#cbd0d7"/></g><g><path d="m22 26v-22c0-1.105-.895-2-2-2h-16c-1.105 0-2 .895-2 2v22c0 1.105.895 2 2 2h3l4 4v-4h9c1.105 0 2-.895 2-2z" fill="#a8b0bc"/></g><g><path d="m2 4v17.917c.493.054.993.083 1.5.083 8.008 0 14.5-6.94 14.5-15.5 0-1.566-.222-3.075-.626-4.5h-13.374c-1.105 0-2 .895-2 2z" fill="#cbd0d7"/></g><g><path d="m14 24h-4v-6h-4v-4h4v-4c0-2.209 1.791-4 4-4h4v4h-3c-.552 0-1 .448-1 1v3h4v4h-4z" fill="#8bd2f5"/></g><g><path d="m6 42h14v10h-14z" fill="#f7d881"/></g><g><path d="m54 26h-8c-2.209 0-4-1.791-4-4v-8c0-2.209 1.791-4 4-4h8c2.209 0 4 1.791 4 4v8c0 2.209-1.791 4-4 4z" fill="#976947"/></g><g><circle cx="50" cy="19" fill="#ebf7fe" r="3"/></g><g><path d="m46 46v10l8-5z" fill="#bf5763"/></g><g><path d="m16 38h-2v-6c0-1.725.633-3.382 1.783-4.667l1.49 1.334c-.821.917-1.273 2.101-1.273 3.333z"/></g><g><path d="m48 33h2v9h-2z"/></g><g><path d="m22 25h16v2h-16z"/></g><g><path d="m15 33h31v2h-31z"/></g><g><path d="m29 29h6v2h-6z"/></g><g><path d="m14 25h-4c-.553 0-1-.448-1-1v-5h-3c-.553 0-1-.448-1-1v-4c0-.552.447-1 1-1h3v-3c0-2.757 2.243-5 5-5h4c.553 0 1 .448 1 1v4c0 .552-.447 1-1 1h-3v2h3c.553 0 1 .448 1 1v4c0 .552-.447 1-1 1h-3v5c0 .552-.447 1-1 1zm-3-2h2v-5c0-.552.447-1 1-1h3v-2h-3c-.553 0-1-.448-1-1v-3c0-1.103.897-2 2-2h2v-2h-3c-1.654 0-3 1.346-3 3v4c0 .552-.447 1-1 1h-3v2h3c.553 0 1 .448 1 1z"/></g><g><path d="m11 33c-.26 0-.516-.102-.707-.293l-3.707-3.707h-2.586c-1.654 0-3-1.346-3-3v-22c0-1.654 1.346-3 3-3h16c1.654 0 3 1.346 3 3v22c0 1.654-1.346 3-3 3h-8v3c0 .404-.243.769-.617.924-.124.051-.254.076-.383.076zm-7-30c-.552 0-1 .449-1 1v22c0 .551.448 1 1 1h3c.266 0 .52.105.707.293l2.293 2.293v-1.586c0-.552.447-1 1-1h9c.552 0 1-.449 1-1v-22c0-.551-.448-1-1-1z"/></g><g><path d="m46 37c-.129 0-.259-.024-.383-.076-.374-.154-.617-.52-.617-.924v-5h-5c-1.654 0-3-1.346-3-3v-20c0-1.654 1.346-3 3-3h20c1.654 0 3 1.346 3 3v20c0 1.654-1.346 3-3 3h-7.586l-5.707 5.707c-.191.191-.447.293-.707.293zm-6-30c-.552 0-1 .449-1 1v20c0 .551.448 1 1 1h6c.553 0 1 .448 1 1v3.586l4.293-4.293c.187-.188.441-.293.707-.293h8c.552 0 1-.449 1-1v-20c0-.551-.448-1-1-1z"/></g><g><path d="m54 27h-8c-2.757 0-5-2.243-5-5v-8c0-2.757 2.243-5 5-5h8c2.757 0 5 2.243 5 5v8c0 2.757-2.243 5-5 5zm-8-16c-1.654 0-3 1.346-3 3v8c0 1.654 1.346 3 3 3h8c1.654 0 3-1.346 3-3v-8c0-1.654-1.346-3-3-3z"/></g><g><path d="m50 23c-2.206 0-4-1.794-4-4s1.794-4 4-4 4 1.794 4 4-1.794 4-4 4zm0-6c-1.103 0-2 .897-2 2s.897 2 2 2 2-.897 2-2-.897-2-2-2z"/></g><g><path d="m53 13h2v2h-2z"/></g><g><path d="m22 57h-18c-1.654 0-3-1.346-3-3v-14c0-1.654 1.346-3 3-3h18c1.654 0 3 1.346 3 3v3.5l3.6 2.7c.252.188.4.485.4.8s-.148.611-.4.8l-3.6 2.7v3.5c0 1.654-1.346 3-3 3zm-18-18c-.552 0-1 .448-1 1v14c0 .552.448 1 1 1h18c.552 0 1-.448 1-1v-4c0-.314.148-.611.4-.8l2.933-2.2-2.933-2.2c-.252-.189-.4-.486-.4-.8v-4c0-.552-.448-1-1-1z"/></g><g><path d="m58 61h-16c-1.654 0-3-1.346-3-3v-3.5l-3.6-2.7c-.252-.189-.4-.486-.4-.8s.148-.611.4-.8l3.6-2.7v-3.5c0-1.654 1.346-3 3-3h16c1.654 0 3 1.346 3 3v14c0 1.654-1.346 3-3 3zm-20.333-10 2.933 2.2c.252.188.4.485.4.8v4c0 .552.448 1 1 1h16c.552 0 1-.448 1-1v-14c0-.552-.448-1-1-1h-16c-.552 0-1 .448-1 1v4c0 .314-.148.611-.4.8z"/></g><g><path d="m14 56h2v7h-2z"/></g><g><path d="m20 53h-14c-.553 0-1-.447-1-1v-10c0-.553.447-1 1-1h14c.553 0 1 .447 1 1v10c0 .553-.447 1-1 1zm-13-2h12v-8h-12z"/></g><g><path d="m13 49c-.231 0-.464-.08-.65-.241l-7-6 1.301-1.518 6.349 5.442 6.35-5.441 1.301 1.518-7 6c-.187.16-.42.24-.651.24z"/></g><g><path d="m48 60h2v3h-2z"/></g><g><path d="m46 57c-.167 0-.334-.042-.484-.125-.319-.177-.516-.512-.516-.875v-10c0-.363.197-.698.516-.875.315-.176.705-.167 1.015.027l8 5c.291.183.469.503.469.848s-.178.665-.47.848l-8 5c-.162.101-.345.152-.53.152zm1-9.195v6.391l5.113-3.196z"/></g></g></svg>