<svg width="196" height="175" viewBox="0 0 196 175" fill="none" xmlns="http://www.w3.org/2000/svg">
<path d="M135.155 157.864C132.099 151.376 124.867 147.702 117.778 146.469V138.289H130.516C133.487 138.289 135.888 135.887 135.888 132.917C135.888 129.946 133.487 127.545 130.516 127.545H105.731L90.5104 96.2488C89.7779 97.429 88.8012 98.4464 87.6616 99.301C85.4779 100.939 83.008 101.743 80.1734 101.743L97.144 138.289H111.184V146.184C103.129 147.16 96.9792 151.756 93.8069 157.782C91.3244 158.23 89.3709 160.306 89.3709 162.951C89.3709 165.881 91.772 168.282 94.7022 168.282C97.6731 168.282 100.033 165.881 100.033 162.951C100.033 161.689 99.5451 160.631 98.8533 159.736C106.259 146.841 124.929 150.946 129.864 159.451C129.05 160.387 128.521 161.567 128.521 162.951C128.521 165.881 130.882 168.282 133.853 168.282C136.783 168.282 139.184 165.881 139.184 162.951C139.184 160.469 137.434 158.475 135.155 157.864Z" fill="black"/>
<path d="M190.105 101.07L153.478 88.861C151.453 88.1854 149.24 88.3282 147.324 89.2744L128.465 98.5114L119.997 74.6329C130.125 65.9959 143.798 49.0696 143.069 20.7459C142.952 16.2509 139.137 12.7355 134.723 12.8173C130.228 12.9345 126.679 16.6705 126.794 21.1634C127.315 41.3572 118.438 53.8694 111.227 60.6788C107.368 58.3571 102.574 57.6542 97.9982 59.2772C89.8779 62.1569 85.63 71.0744 88.5097 79.1947L100.064 111.775C103.631 121.831 116.315 125.694 124.863 118.402L151.493 105.359L184.958 116.515C189.214 117.94 193.835 115.635 195.253 111.366C196.675 107.101 194.37 102.493 190.105 101.07Z" fill="black"/>
<path d="M85.2316 96.0559C88.8345 93.3675 89.5756 88.2661 86.8851 84.6657L56.7918 44.3575C54.2837 39.1264 49.2528 35.2516 43.0603 34.5878C33.5495 33.568 25.0129 40.451 23.9931 49.9615L18.8913 97.5422C18.6072 100.166 19.0675 102.739 20.122 105.021C20.5766 117.915 19.6214 146.955 3.25192 160.609C-0.199581 163.486 -0.66271 168.619 2.21659 172.073C5.09589 175.524 10.229 175.987 13.6805 173.108C32.2065 157.655 36.0556 130.267 36.4609 112.809C38.0762 112.405 39.5962 111.746 40.9653 110.824C48.5271 118.488 58.3298 134.754 52.3665 165.299C51.5041 169.71 54.3834 173.987 58.7949 174.847C63.1865 175.709 67.478 172.846 68.3432 168.419C76.61 126.075 59.4375 104.657 48.4917 95.6628L54.8913 69.0194L73.8414 94.4024C76.5278 98.0049 81.6311 98.7452 85.2316 96.0559Z" fill="black"/>
<path d="M91.8945 51.8161C99.7612 51.8161 106.138 45.4389 106.138 37.5723C106.138 29.7056 99.7612 23.3284 91.8945 23.3284C84.0278 23.3284 77.6506 29.7056 77.6506 37.5723C77.6506 45.4389 84.0278 51.8161 91.8945 51.8161Z" fill="black"/>
<path d="M51.1977 28.4885C59.0644 28.4885 65.4416 22.1113 65.4416 14.2446C65.4416 6.37794 59.0644 0.000732422 51.1977 0.000732422C43.331 0.000732422 36.9538 6.37794 36.9538 14.2446C36.9538 22.1113 43.331 28.4885 51.1977 28.4885Z" fill="black"/>
</svg>
